# xmcd
#
# Track frame offsets:
#	150
#	12612
#	29905
#	53017
#	72697
#	93817
#	107585
#	121980
#	161015
#	180305
#	194290
#	223790
#
# Disc length: 3312
#
# Revision: 3
# Processed by: cddbd v1.5.1PL0 Copyright (c) Steve Scherf et al.
# Submitted via: CDex 1.30
# Normalized: r1:DSETVAR2,TDELIM( - ),TSWAP
#
DISCID=aa0cee0c
DTITLE=Various Artist - barrelhouse BLUES
DYEAR=2001
DGENRE=Blues
TTITLE0=Jonny Otis - Wille and the Hand Jive
TTITLE1=Johnny Otis - Barrelhouse Blues
TTITLE2=Muddy Waters - Rock Me Baby
TTITLE3=Muddy Waters - All Night Long
TTITLE4=Muddy Waters - Early Morning Blues
TTITLE5=Joe Turner - Shake, Rattle and Roll
TTITLE6=Joe Turner - Cherry Red
TTITLE7=T-Bone Walker - Late Blues
TTITLE8=T-Bone Walker - Why You Treat Me
TTITLE9=T-Bone Walker - You Don't Love Me
TTITLE10=Lightnin' Hopkins - Everybody's Blue
TTITLE11=Lightnin' Hopkins - Brand New Car
EXTD=\nYEAR: 2001  ID3G:   0
EXTT0=
EXTT1=
EXTT2=
EXTT3=
EXTT4=
EXTT5=
EXTT6=
EXTT7=
EXTT8=
EXTT9=
EXTT10=
EXTT11=
PLAYORDER=
